<svg xmlns="http://www.w3.org/2000/svg" width="106" height="28" viewBox="0 0 106 28" fill="none"><g clip-path="url(#clip0_1282_1390)"><path d="M40.3651 9.43053C39.0469 9.43053 38.0198 9.97329 37.3607 10.9619V5.57373H34.6279V19.1413H37.3607V17.8041C38.0198 18.7927 39.0469 19.3355 40.3651 19.3355C42.8268 19.3355 44.7841 17.1065 44.7841 14.3737C44.7841 11.6409 42.8263 9.43096 40.3651 9.43096V9.43053ZM39.745 16.7181C38.4077 16.7181 37.3607 15.7105 37.3607 14.3728C37.3607 13.0352 38.4073 12.0275 39.745 12.0275C41.0826 12.0275 42.1097 13.0741 42.1097 14.3728C42.1097 15.6716 41.0631 16.7181 39.745 16.7181Z" fill="white"></path><path d="M50.3476 9.43042C47.5759 9.43042 45.4053 11.5625 45.4053 14.3342C45.4053 17.106 47.5953 19.3349 50.406 19.3349C52.7902 19.3349 54.5923 17.9973 54.9028 15.943H52.228C52.0727 16.6021 51.3946 17.067 50.3285 17.067C49.0493 17.067 48.0996 16.2726 47.9058 15.0318H54.9802C55.0191 14.7217 55.0382 14.2759 55.0382 14.0626C55.0382 11.4462 52.9256 9.43042 50.3476 9.43042V9.43042ZM48.0412 13.2876C48.3707 12.1636 49.1847 11.6404 50.2312 11.6404C51.2778 11.6404 52.1112 12.3185 52.189 13.2876H48.0412Z" fill="white"></path><path d="M63.1006 10.9813C62.4416 9.99263 61.4144 9.43042 60.0772 9.43042C57.6156 9.43042 55.6582 11.6399 55.6582 14.3732C55.6582 17.1064 57.616 19.3349 60.0772 19.3349C61.4144 19.3349 62.442 18.7727 63.1006 17.7841V19.1407H65.8334V9.62417H63.1006V10.9808V10.9813ZM60.7164 16.7185C59.3983 16.7185 58.3326 15.6913 58.3326 14.3732C58.3326 13.055 59.3987 12.0279 60.7164 12.0279C62.0342 12.0279 63.1006 13.055 63.1006 14.3732C63.1006 15.6913 62.0541 16.7185 60.7164 16.7185Z" fill="white"></path><path d="M70.9857 7.12402H68.2529V9.62458H66.4893V12.222H68.2529V15.2649C68.2529 17.8234 69.7648 19.2964 72.0132 19.2964C72.4007 19.2964 72.963 19.238 73.3314 19.1412V16.6216C73.1182 16.6795 72.8661 16.699 72.6338 16.699C71.6841 16.699 70.9865 16.2531 70.9865 15.226V12.222H73.3318V9.62458H70.9865V7.12402H70.9857Z" fill="white"></path><path d="M81.4717 10.9229C80.8127 9.95371 79.7855 9.43042 78.4483 9.43042C75.9867 9.43042 74.0293 11.5625 74.0293 14.1984C74.0293 16.8344 75.9871 18.9665 78.4483 18.9665C79.7855 18.9665 80.8131 18.4432 81.4717 17.474V18.8501C81.4717 20.013 80.3668 20.7885 79.1848 20.7885C78.0993 20.7885 77.1301 20.362 77.0527 19.5092H74.3199C74.4942 22.4163 77.5181 23.0564 79.2817 23.0564C82.034 23.0564 84.205 21.4281 84.205 18.7342V9.60471H81.4722V10.9229H81.4717ZM79.0879 16.4469C77.7698 16.4469 76.7037 15.4582 76.7037 14.1984C76.7037 12.9386 77.7698 11.931 79.0879 11.931C80.4061 11.931 81.4717 12.9196 81.4717 14.1984C81.4717 15.4773 80.4252 16.4469 79.0879 16.4469Z" fill="white"></path><path d="M87.7943 10.7096V9.6241H85.0615V19.1407H87.7943V14.4501C87.7943 12.686 88.8604 11.8916 90.1785 11.8916C90.5081 11.8916 90.8376 11.9495 91.1672 12.0274V9.54627C90.8571 9.48831 90.547 9.42993 90.2564 9.42993C89.1903 9.42993 88.357 9.89527 87.7948 10.7092L87.7943 10.7096Z" fill="white"></path><path d="M94.8305 9.62402H92.0977V19.1406H94.8305V9.62402Z" fill="white"></path><path d="M93.4539 5.01123C92.5431 5.01123 91.7871 5.76719 91.7871 6.65853C91.7871 7.54986 92.5431 8.32528 93.4539 8.32528C94.3647 8.32528 95.1206 7.56932 95.1206 6.65853C95.1206 5.74773 94.3647 5.01123 93.4539 5.01123V5.01123Z" fill="white"></path><path d="M103.028 5.57373V10.9814C102.369 9.99275 101.342 9.43053 100.004 9.43053C97.5423 9.43053 95.585 11.64 95.585 14.3733C95.585 17.1065 97.5428 19.335 100.004 19.335C101.341 19.335 102.369 18.7728 103.028 17.7842V19.1409H105.761V5.57373H103.028ZM100.644 16.7186C99.3254 16.7186 98.2594 15.6914 98.2594 14.3733C98.2594 13.0551 99.3254 12.028 100.644 12.028C101.962 12.028 103.028 13.0551 103.028 14.3733C103.028 15.6914 101.981 16.7186 100.644 16.7186Z" fill="white"></path><path d="M19.6119 16.8073H18.7561C18.479 16.8073 18.2015 16.7709 17.9379 16.685C16.8753 16.3398 16.0931 15.3723 16.0216 14.2128V13.8084C16.1096 12.351 17.319 11.1923 18.7988 11.1923L19.6114 11.1881C21.1644 11.1881 22.4234 9.92957 22.4234 8.37704C22.4234 6.8245 21.1644 5.56598 19.6114 5.56598H18.7785C17.7746 5.56598 16.833 5.03549 16.3524 4.15431C16.1371 3.75962 16.0144 3.30655 16.0144 2.82471C16.0144 2.82471 16.0144 1.26795 16.0144 1.26752C16.0144 0.568249 15.4471 0.000537306 14.747 0.000537306C10.311 -0.00115483 5.71223 0.00180641 1.26783 0.000537306C0.567712 0.000537306 0 0.568249 0 1.26795V26.7308C0 27.4309 0.567712 27.9982 1.26783 27.9982C4.02348 27.9936 7.64169 28.0016 10.3982 27.9982C11.2578 28.0037 13.8535 27.9944 14.747 27.9982C15.4471 27.9982 16.0148 27.4309 16.0148 26.7308V25.1918C16.0165 24.3381 16.4002 23.5733 17.0051 23.0622C17.4984 22.646 18.1296 22.4294 18.7751 22.4294H19.6123C21.1652 22.4294 22.4242 21.1709 22.4242 19.6183C22.4242 18.0658 21.1652 16.8073 19.6123 16.8073H19.6119ZM4.28999 9.2561V5.95982C4.28999 5.74238 4.46597 5.5664 4.68341 5.5664H13.279V5.57697C14.8282 5.57528 16.0855 6.84692 16.0609 8.39607H16.0622C16.0715 8.84957 15.9708 9.27979 15.7843 9.66179C15.3227 10.6073 14.343 11.1889 13.2909 11.1889H4.68341C4.46597 11.1889 4.28999 11.013 4.28999 10.7955V9.25653V9.2561ZM13.4271 22.4324H4.68341C4.46597 22.4324 4.28999 22.2564 4.28999 22.0389V17.2036C4.28999 16.9862 4.46597 16.8102 4.68341 16.8102H13.3015C13.8869 16.8102 14.4623 16.9866 14.9331 17.3348C15.6273 17.8479 16.0745 18.6754 16.0626 19.6031C16.0626 19.6031 16.0626 19.6065 16.0626 19.6082V19.6094C16.0905 21.1112 14.9107 22.3571 13.4275 22.4319L13.4271 22.4324Z" fill="white"></path><path d="M27.9999 14.0077C27.9999 12.4412 26.73 11.1716 25.163 11.1716C23.5961 11.1716 22.3262 12.4416 22.3262 14.0077C22.4755 17.7697 27.8514 17.7684 27.9999 14.0077Z" fill="white"></path></g><defs><clipPath id="clip0_1282_1390"><rect width="106" height="28" fill="white"></rect></clipPath></defs></svg>