<?xml version="1.0" encoding="utf-8"?>
<!-- Generator: Adobe Illustrator 21.1.0, SVG Export Plug-In . SVG Version: 6.00 Build 0)  -->
<svg version="1.1" id="Layer_1" xmlns="http://www.w3.org/2000/svg" xmlns:xlink="http://www.w3.org/1999/xlink" x="0px" y="0px"
	 viewBox="0 0 149 86" style="enable-background:new 0 0 149 86;" xml:space="preserve">
<style type="text/css">
	.st0{fill:#993366;}
	.st1{fill:#E16633;}
	.st2{filter:url(#Adobe_OpacityMaskFilter);}
	.st3{fill:#FFFFFF;}
	.st4{mask:url(#mask-2);}
	.st5{fill:#CCCCCC;}
	.st6{filter:url(#Adobe_OpacityMaskFilter_1_);}
	.st7{mask:url(#mask-4);}
	.st8{fill:#1A1918;}
</style>
<title>Group 175 Copy</title>
<desc>Created with Sketch.</desc>
<g id="Symbols">
	<g id="Group-175-Copy">
		<path id="Fill-1" class="st0" d="M25,9.8l-2.5-4.5c-1.6,0.9-3.1,1.8-4.6,2.9l3,4.1C22.2,11.4,23.6,10.5,25,9.8"/>
		<path id="Fill-3" d="M29.3,7.7L27.4,3c-1.7,0.7-3.3,1.4-4.9,2.3L25,9.8C26.3,9,27.8,8.3,29.3,7.7"/>
		<path id="Fill-5" class="st1" d="M38.4,5.4l-0.6-5c-1.8,0.2-3.6,0.6-5.3,1l1.3,4.9C35.3,5.9,36.9,5.6,38.4,5.4"/>
		<g id="Group-9" transform="translate(43.030308, 0.000000)">
			<g id="Clip-8">
			</g>
			<defs>
				<filter id="Adobe_OpacityMaskFilter" filterUnits="userSpaceOnUse" x="0.2" y="0" width="5.4" height="5.4">
					<feColorMatrix  type="matrix" values="1 0 0 0 0  0 1 0 0 0  0 0 1 0 0  0 0 0 1 0"/>
				</filter>
			</defs>
			<mask maskUnits="userSpaceOnUse" x="0.2" y="0" width="5.4" height="5.4" id="mask-2">
				<g class="st2">
					<polygon id="path-1" class="st3" points="5.5,0 0.2,0 0.2,5.4 5.5,5.4 					"/>
				</g>
			</mask>
			<path id="Fill-7" class="st4" d="M0.2,5.1c1.6,0,3.2,0.1,4.7,0.3l0.6-5C3.8,0.2,2,0,0.2,0h0L0.2,5.1L0.2,5.1z"/>
		</g>
		<path id="Fill-10" class="st5" d="M17.3,15.3l-3.5-3.7c-1.3,1.2-2.5,2.5-3.7,3.9l3.9,3.2C15.1,17.5,16.1,16.4,17.3,15.3"/>
		<path id="Fill-12" d="M11.3,22.5l-4.3-2.7c-1,1.5-1.8,3.1-2.6,4.7L9,26.7C9.6,25.2,10.4,23.9,11.3,22.5"/>
		<path id="Fill-14" class="st0" d="M2.3,29.5c-0.6,1.7-1,3.4-1.3,5.2c-0.3,1.7-0.6,3.5-0.7,5.3l5.1,0.3c0.1-1.6,0.3-3.1,0.6-4.7
			C6.3,34,6.7,32.5,7.2,31L2.3,29.5z"/>
		<path id="Fill-16" class="st1" d="M77.4,26.7l4.6-2.2c-0.8-1.6-1.6-3.2-2.6-4.7l-4.3,2.7C76,23.9,76.7,25.2,77.4,26.7"/>
		<path id="Fill-18" d="M61.4,9.8l2.5-4.5C62.3,4.4,60.7,3.7,59,3l-1.9,4.7C58.6,8.3,60,9,61.4,9.8"/>
		<path id="Fill-20" class="st0" d="M57.1,7.7L59,3c-1.7-0.7-3.4-1.2-5.1-1.7l-1.3,4.9C54.1,6.7,55.7,7.2,57.1,7.7"/>
		<path id="Fill-22" class="st0" d="M57.1,77.5l1.9,4.7c1.7-0.7,3.3-1.4,4.9-2.3l-2.5-4.5C60,76.3,58.6,76.9,57.1,77.5"/>
		<path id="Fill-24" class="st1" d="M47.9,79.9l0.6,5c1.8-0.2,3.6-0.6,5.3-1L52.6,79C51.1,79.4,49.5,79.7,47.9,79.9"/>
		<path id="Fill-26" d="M43.2,80.2L43.2,80.2l0,5.1h0c1.8,0,3.6-0.1,5.4-0.3l-0.6-5C46.4,80.1,44.8,80.2,43.2,80.2"/>
		<path id="Fill-28" d="M14,66.5l-3.9,3.2c1.1,1.4,2.4,2.7,3.7,3.9l3.5-3.7C16.1,68.9,15.1,67.8,14,66.5"/>
		<path id="Fill-30" d="M9,58.6c-0.7-1.4-1.3-2.9-1.7-4.4l-4.9,1.6c0.6,1.7,1.2,3.4,2,5C5.1,62.4,6,64,6.9,65.5l4.3-2.7
			C10.4,61.4,9.6,60,9,58.6"/>
		<g id="Group-34" transform="translate(0.000000, 44.324545)">
			<g id="Clip-33">
			</g>
			<defs>
				<filter id="Adobe_OpacityMaskFilter_1_" filterUnits="userSpaceOnUse" x="0.3" y="0.7" width="5.7" height="5.6">
					<feColorMatrix  type="matrix" values="1 0 0 0 0  0 1 0 0 0  0 0 1 0 0  0 0 0 1 0"/>
				</filter>
			</defs>
			<mask maskUnits="userSpaceOnUse" x="0.3" y="0.7" width="5.7" height="5.6" id="mask-4">
				<g class="st6">
					<polygon id="path-3" class="st3" points="0.3,6.3 0.3,0.7 6,0.7 6,6.3 					"/>
				</g>
			</mask>
			<path id="Fill-32" class="st7" d="M5.4,0.7L0.3,1C0.4,2.8,0.7,4.6,1,6.3l5-1C5.7,3.8,5.5,2.3,5.4,0.7"/>
		</g>
		<path id="Fill-35" d="M33.8,79l-1.3,4.9c1.7,0.4,3.5,0.8,5.3,1l0.6-5C36.9,79.7,35.3,79.4,33.8,79"/>
		<path id="Fill-37" class="st0" d="M17.3,70l-3.5,3.7c1.3,1.2,2.7,2.4,4.2,3.4l3-4.1C19.7,72.1,18.5,71.1,17.3,70"/>
		<path id="Fill-39" class="st0" d="M25,75.5L22.5,80c1.6,0.9,3.2,1.6,4.9,2.3l1.9-4.7C27.8,76.9,26.3,76.3,25,75.5"/>
		<path id="Fill-41" class="st0" d="M31.2,12.5l-1.9-4.8c-1.5,0.6-2.9,1.3-4.3,2l2.5,4.5C28.7,13.6,29.9,13,31.2,12.5"/>
		<path id="Fill-43" class="st0" d="M24,16.5L21,12.3c-1.3,0.9-2.5,1.9-3.7,3l3.6,3.8C21.9,18.1,22.9,17.3,24,16.5"/>
		<path id="Fill-45" d="M20.9,19l-3.6-3.8c-1.2,1.1-2.2,2.2-3.3,3.4l4,3.3C18.9,21,19.9,20,20.9,19"/>
		<path id="Fill-47" d="M13.7,28.9L9,26.7c-0.7,1.4-1.3,2.9-1.7,4.4l4.9,1.6C12.6,31.3,13.1,30.1,13.7,28.9"/>
		<path id="Fill-49" class="st0" d="M43.2,10.3V5.1c-1.6,0-3.2,0.1-4.7,0.3l0.7,5.1C40.4,10.4,41.8,10.3,43.2,10.3"/>
		<path id="Fill-51" class="st0" d="M70.7,25.3l4.4-2.8c-0.9-1.3-1.8-2.6-2.8-3.8l-4,3.3C69.2,23.1,70,24.1,70.7,25.3"/>
		<path id="Fill-53" class="st1" d="M10.6,42.6c0-0.7,0-1.4,0.1-2l-5.2-0.3c0,0.8-0.1,1.6-0.1,2.4s0,1.6,0.1,2.4l5.2-0.3
			C10.6,44,10.6,43.3,10.6,42.6"/>
		<path id="Fill-55" class="st1" d="M62.4,16.5l3.1-4.2c-1.3-0.9-2.6-1.8-4-2.5l-2.5,4.5C60.1,14.9,61.3,15.7,62.4,16.5"/>
		<path id="Fill-57" d="M68.4,8.2l-3,4.1c1.3,0.9,2.5,1.9,3.7,3L65.5,19c1,0.9,1.9,1.9,2.8,3l4-3.3l3.9-3.2
			c-1.1-1.4-2.4-2.7-3.7-3.9C71.3,10.4,69.9,9.2,68.4,8.2z"/>
		<path id="Fill-59" d="M52.6,6.3c-1.5-0.4-3.1-0.7-4.7-0.9l-0.7,5.1c1.4,0.2,2.7,0.4,4,0.8c1.3,0.3,2.6,0.8,3.9,1.3l1.9-4.8
			C55.7,7.2,54.1,6.7,52.6,6.3"/>
		<path id="Fill-61" d="M58.9,71l2.5,4.5c1.4-0.8,2.7-1.6,4-2.5l-3.1-4.2C61.3,69.6,60.1,70.3,58.9,71"/>
		<path id="Fill-63" class="st0" d="M43.2,75L43.2,75v5.2l0,0c1.6,0,3.2-0.1,4.7-0.3l-0.7-5.1C45.9,74.9,44.6,75,43.2,75"/>
		<path id="Fill-65" class="st0" d="M15.6,60l-4.4,2.8c0.9,1.3,1.8,2.6,2.8,3.8l4-3.3C17.2,62.2,16.4,61.1,15.6,60"/>
		<path id="Fill-67" class="st5" d="M18.1,63.3l-4,3.3c1,1.2,2.1,2.4,3.3,3.4l3.6-3.8C19.9,65.3,18.9,64.3,18.1,63.3"/>
		<path id="Fill-69" class="st0" d="M12.2,52.6l-4.9,1.6c0.5,1.5,1.1,3,1.7,4.4l4.7-2.2C13.1,55.2,12.6,53.9,12.2,52.6"/>
		<path id="Fill-71" d="M31.2,72.7l-1.9,4.8c1.5,0.6,3,1.1,4.5,1.5l1.3-5C33.7,73.6,32.4,73.2,31.2,72.7"/>
		<path id="Fill-73" class="st5" d="M16.2,37.5l-5-1c-0.3,1.3-0.4,2.7-0.5,4l5.1,0.3C15.8,39.8,16,38.6,16.2,37.5"/>
		<path id="Fill-75" d="M39.1,10.5c-1.4,0.2-2.7,0.4-4,0.8c-1.3,0.3-2.6,0.8-3.9,1.3l1.9,4.7c1.1-0.4,2.2-0.8,3.3-1.1
			c1.1-0.3,2.2-0.5,3.4-0.6L39.1,10.5z"/>
		<path id="Fill-77" d="M18.1,22c-0.9,1-1.7,2.1-2.4,3.3c-0.7,1.1-1.4,2.3-2,3.6l4.6,2.2c0.5-1,1-2,1.7-3c0.6-1,1.3-1.9,2-2.8
			L18.1,22z"/>
		<path id="Fill-79" class="st5" d="M68.1,31l4.6-2.2c-0.6-1.2-1.2-2.4-2-3.6L66.4,28C67,29,67.6,30,68.1,31"/>
		<path id="Fill-81" class="st0" d="M62,22.7l3.5-3.7c-1-0.9-2-1.8-3.2-2.6l-3,4.1C60.3,21.2,61.2,22,62,22.7"/>
		<path id="Fill-83" class="st1" d="M50,16.2l1.3-4.9c-1.3-0.3-2.7-0.6-4-0.8l-0.6,5C47.8,15.7,48.9,15.9,50,16.2"/>
		<path id="Fill-85" class="st5" d="M53.3,68l1.9,4.7c1.3-0.5,2.5-1.1,3.7-1.7l-2.5-4.4C55.4,67.1,54.4,67.6,53.3,68"/>
		<path id="Fill-87" d="M16.2,47.7l-5,1c0.3,1.3,0.6,2.7,1,3.9l4.9-1.6C16.7,50,16.4,48.9,16.2,47.7"/>
		<path id="Fill-89" d="M46.6,69.7l0.6,5c1.4-0.2,2.7-0.4,4-0.8L50,69.1C48.9,69.4,47.8,69.6,46.6,69.7"/>
		<path id="Fill-91" class="st1" d="M20,57.3L15.6,60c0.7,1.1,1.5,2.2,2.4,3.3L22,60C21.3,59.1,20.6,58.2,20,57.3"/>
		<path id="Fill-93" class="st5" d="M24.4,62.5l-3.5,3.7c1,0.9,2,1.8,3.2,2.6l3-4.1C26.1,64,25.2,63.3,24.4,62.5"/>
		<path id="Fill-95" d="M29.9,66.5L27.5,71c1.2,0.7,2.4,1.2,3.7,1.7l1.9-4.7C32,67.6,30.9,67.1,29.9,66.5"/>
		<path id="Fill-97" class="st1" d="M36.3,69.1L35.1,74c1.3,0.3,2.7,0.6,4,0.8l0.6-5C38.6,69.6,37.5,69.4,36.3,69.1"/>
		<path id="Fill-99" class="st0" d="M39.7,69.7l-0.6,5c1.3,0.2,2.7,0.3,4.1,0.3v-5.1C42,69.9,40.9,69.8,39.7,69.7"/>
		<path id="Fill-101" class="st1" d="M26,28.5l-4-3.3c-0.7,0.9-1.4,1.8-2,2.8l4.4,2.8C24.9,30,25.4,29.3,26,28.5"/>
		<path id="Fill-103" d="M60.4,28.5l4-3.3c-0.7-0.9-1.5-1.7-2.4-2.5l-3.6,3.8C59.1,27.2,59.8,27.8,60.4,28.5"/>
		<path id="Fill-105" class="st5" d="M43.2,20.5v-5.2c-1.2,0-2.3,0.1-3.4,0.2l0.7,5.1C41.3,20.6,42.2,20.5,43.2,20.5"/>
		<path id="Fill-107" d="M51.4,22.1l1.9-4.8c-1.1-0.4-2.2-0.8-3.3-1.1l-1.3,5C49.6,21.4,50.5,21.7,51.4,22.1"/>
		<path id="Fill-109" class="st1" d="M39.7,15.6c-1.2,0.1-2.3,0.4-3.4,0.6l1.3,5c0.9-0.2,1.8-0.4,2.8-0.5L39.7,15.6z"/>
		<path id="Fill-111" d="M32.5,23.3l-2.5-4.5c-1,0.6-2,1.2-2.9,1.8l3.1,4.2C30.8,24.2,31.6,23.7,32.5,23.3"/>
		<path id="Fill-113" class="st1" d="M51.4,63.2l1.9,4.8c1.1-0.4,2.1-0.9,3.1-1.5L53.9,62C53.1,62.5,52.3,62.9,51.4,63.2"/>
		<path id="Fill-115" class="st0" d="M26,56.7L22,60c0.7,0.9,1.5,1.7,2.4,2.5l3.6-3.8C27.3,58.1,26.6,57.4,26,56.7"/>
		<path id="Fill-117" d="M48.7,64.1l1.3,5c1.1-0.3,2.2-0.6,3.3-1.1l-1.9-4.8C50.5,63.5,49.6,63.8,48.7,64.1"/>
		<path id="Fill-119" class="st1" d="M32.5,62l-2.5,4.5c1,0.5,2,1,3.1,1.5l1.9-4.8C34.1,62.9,33.3,62.5,32.5,62"/>
		<path id="Fill-121" class="st5" d="M43.2,64.7L43.2,64.7v5.2l0,0c1.2,0,2.3-0.1,3.4-0.2L46,64.6C45.1,64.7,44.1,64.7,43.2,64.7"/>
		<path id="Fill-123" class="st1" d="M54.9,30.2l3.5-3.7c-0.7-0.6-1.4-1.2-2.2-1.8l-3,4.1C53.8,29.3,54.4,29.8,54.9,30.2"/>
		<path id="Fill-125" class="st1" d="M45.3,25.8l0.6-5.1c-0.9-0.1-1.8-0.2-2.8-0.2v5.1C43.9,25.6,44.6,25.7,45.3,25.8"/>
		<path id="Fill-127" class="st5" d="M53.3,56.4l3,4.1c0.8-0.5,1.5-1.1,2.2-1.8L54.9,55C54.4,55.5,53.8,56,53.3,56.4"/>
		<path id="Fill-129" class="st5" d="M33.1,56.4l-3,4.1c0.8,0.5,1.5,1,2.4,1.5l2.5-4.5C34.3,57.2,33.7,56.8,33.1,56.4"/>
		<path id="Fill-131" d="M72.1,74.4h0.2c0.4,0,0.6-0.2,0.6-0.7V62.2l3.6,7.8c0.3,0.6,0.5,0.9,1.3,0.9c0.7,0,1-0.3,1.3-0.9l3.6-7.8
			v11.6c0,0.4,0.2,0.7,0.6,0.7h0.2c0.4,0,0.6-0.2,0.6-0.7V61.4c0-0.5-0.4-0.9-1-0.9h-0.3c-0.7,0-0.9,0.3-1.3,1.1l-3.7,8l-3.6-8
			c-0.3-0.7-0.5-1.1-1.3-1.1h-0.3c-0.6,0-1,0.4-1,0.9v12.3C71.5,74.2,71.7,74.4,72.1,74.4"/>
		<path id="Fill-133" d="M93.2,68.3h-0.2c-4.7,0.1-7.1,1.1-7.1,3.4c0,1.7,1.3,2.8,3.5,2.8c1.6,0,3-0.7,3.8-1.9v0.4
			c0,1.1,0.4,1.3,0.9,1.3c0.3,0,0.5-0.1,0.5-0.1v-6.4c0-2.4-1.5-3.9-4.1-3.9c-2.7,0-4.1,1.6-4.1,2.3c0,0.7,0.8,0.8,0.8,0.8
			c0.6-1,1.6-1.9,3.3-1.9c1.8,0,2.9,1,2.9,2.7V68.3z M89.5,73.4c-1.4,0-2.2-0.7-2.2-1.7c0-1.6,1.8-2.2,5.3-2.3l0.6,0v0.9
			C93.2,72.1,91.6,73.4,89.5,73.4L89.5,73.4z"/>
		<path id="Fill-135" d="M97.1,65.4v5.9c0,2.1,0.9,3.2,2.8,3.2c1.3,0,2.1-0.7,2.1-1.3c0-0.5-0.4-0.7-0.5-0.7
			c-0.4,0.4-0.9,0.7-1.6,0.7c-1.1,0-1.5-0.7-1.5-2.2v-5.7h2.7c0.5,0,0.7-0.2,0.7-0.6v-0.1c0-0.4-0.2-0.6-0.7-0.6h-2.7v-1.8
			c0-0.5-0.2-0.7-0.6-0.7h-0.1c-0.4,0-0.6,0.1-0.6,0.7v1.8h-0.9c-0.5,0-0.7,0.2-0.7,0.6v0.1c0,0.4,0.2,0.6,0.7,0.6H97.1z"/>
		<path id="Fill-137" d="M104,65.4v5.9c0,2.1,0.9,3.2,2.8,3.2c1.3,0,2.1-0.7,2.1-1.3c0-0.5-0.4-0.7-0.5-0.7
			c-0.4,0.4-0.9,0.7-1.6,0.7c-1.1,0-1.5-0.7-1.5-2.2v-5.7h2.7c0.5,0,0.7-0.2,0.7-0.6v-0.1c0-0.4-0.2-0.6-0.7-0.6h-2.7v-1.8
			c0-0.5-0.2-0.7-0.6-0.7h-0.1c-0.4,0-0.6,0.1-0.6,0.7v1.8h-0.9c-0.5,0-0.7,0.2-0.7,0.6v0.1c0,0.4,0.2,0.6,0.7,0.6H104z"/>
		<path id="Fill-139" d="M110.8,69.6h7.9c0.4,0,0.6-0.1,0.6-0.5v-0.1c0-3.1-1.9-5.1-4.7-5.1c-3,0-5.1,2.3-5.1,5.3
			c0,3.1,2.2,5.3,5.3,5.3c2.8,0,4.3-1.5,4.3-2.2c0-0.7-0.8-0.8-0.8-0.8c-0.6,1-1.5,1.8-3.5,1.8C112.5,73.3,110.9,71.8,110.8,69.6
			L110.8,69.6z M110.9,68.5c0.3-1.9,1.8-3.3,3.7-3.3c1.9,0,3.1,1.3,3.3,3.3H110.9z"/>
		<path id="Fill-141" d="M122.2,66.1v-0.6c0-1.1-0.4-1.3-0.9-1.3c-0.3,0-0.5,0.1-0.5,0.1v9.5c0,0.5,0.3,0.7,0.6,0.7h0.2
			c0.4,0,0.6-0.1,0.6-0.7v-4c0-2.6,0.7-4.5,2.5-4.5c0.6,0,0.9,0.2,1.2,0.4c0,0,0.4-0.2,0.4-0.7c0-0.7-0.5-1-1.5-1
			C123.5,64,122.6,64.7,122.2,66.1"/>
		<path id="Fill-143" d="M130.8,74.6c2.5,0,4-1.2,4-3.1c0-2.1-2.1-2.5-3.7-2.9c-1.9-0.4-2.8-0.7-2.8-1.8c0-1,0.9-1.7,2.6-1.7
			c1.4,0,2.4,0.6,3,1.5c0,0.1,0.8-0.2,0.8-0.7c0-0.8-1.3-1.9-3.8-1.9c-2.4,0-3.9,1.3-3.9,3.1c0,2,2,2.5,3.6,2.8c1.9,0.4,3,0.7,3,1.9
			c0,1-0.9,1.7-2.6,1.7s-2.8-0.7-3.5-1.6c0,0-0.7,0.2-0.7,0.7C126.6,73.3,128.1,74.6,130.8,74.6"/>
		<path id="Fill-145" d="M72.3,56h8.4c0.4,0,0.7-0.2,0.7-0.6v-0.1c0-0.4-0.2-0.6-0.7-0.6H73v-5.1h6.1c0.4,0,0.7-0.2,0.7-0.6v-0.1
			c0-0.4-0.2-0.6-0.7-0.6H73v-4.7h7.6c0.4,0,0.7-0.2,0.7-0.6v-0.1c0-0.4-0.2-0.6-0.7-0.6h-8.3c-0.4,0-0.8,0.4-0.8,0.8v12.1
			C71.5,55.7,71.9,56,72.3,56"/>
		<path id="Fill-147" d="M86.2,54.8l3-7.9c0.3-0.8,0.6-1,1-1c0.5,0,0.7,0.3,0.7,0.4l-3.7,9.4c-0.2,0.4-0.3,0.6-1,0.6
			c-0.7,0-0.8-0.1-0.9-0.5l-3.8-9.4c0-0.1,0.2-0.4,0.7-0.4c0.5,0,0.7,0.2,1,1L86.2,54.8z"/>
		<path id="Fill-149" d="M92.8,56.1h0.2c0.4,0,0.6-0.1,0.6-0.7v-8.9c0-0.5-0.3-0.7-0.6-0.7h-0.2c-0.4,0-0.6,0.1-0.6,0.7v8.9
			C92.2,56,92.4,56.1,92.8,56.1 M92.8,43.4c0.6,0,0.9-0.3,0.9-0.9c0-0.6-0.3-0.9-0.9-0.9c-0.6,0-0.9,0.3-0.9,0.9
			C91.9,43.1,92.3,43.4,92.8,43.4"/>
		<path id="Fill-151" d="M103.6,47.4c-0.6-0.9-1.9-1.8-3.7-1.8c-2.8,0-4.9,2.1-4.9,5.3c0,3.2,2.1,5.3,4.8,5.3c1.7,0,2.9-0.7,3.8-1.9
			v1.1c0,0.5,0.2,0.7,0.6,0.7h0.2c0.4,0,0.6-0.1,0.6-0.7V42.9c0-1.1-0.4-1.3-0.9-1.3c-0.3,0-0.5,0.1-0.5,0.1V47.4z M103.6,51.7
			c0,1.9-1.8,3.4-3.7,3.4c-2.1,0-3.5-1.7-3.5-4.1c0-2.4,1.4-4.1,3.6-4.1c1.8,0,3,0.9,3.6,2.4V51.7z"/>
		<path id="Fill-153" d="M107.8,51.3h7.9c0.4,0,0.6-0.1,0.6-0.5v-0.1c0-3.1-1.9-5.1-4.7-5.1c-3,0-5.1,2.3-5.1,5.3
			c0,3.1,2.2,5.3,5.3,5.3c2.8,0,4.3-1.5,4.3-2.2c0-0.7-0.8-0.8-0.8-0.8c-0.6,1-1.5,1.8-3.5,1.8C109.6,55,108,53.5,107.8,51.3
			L107.8,51.3z M107.9,50.2c0.3-1.9,1.8-3.3,3.7-3.3c1.9,0,3.1,1.3,3.3,3.3H107.9z"/>
		<path id="Fill-155" d="M119.2,47.5v-0.3c0-1.1-0.4-1.3-0.9-1.3c-0.3,0-0.5,0.1-0.5,0.1v9.5c0,0.5,0.3,0.7,0.6,0.7h0.2
			c0.4,0,0.6-0.1,0.6-0.7v-6.3c0.6-1.3,1.8-2.1,3.4-2.1c1.7,0,2.7,1.2,2.7,3.2v5.2c0,0.5,0.3,0.7,0.6,0.7h0.2c0.4,0,0.6-0.1,0.6-0.7
			v-5.3c0-2.7-1.3-4.5-4-4.5C121.1,45.7,119.9,46.4,119.2,47.5"/>
		<path id="Fill-157" d="M133.2,56.3c3,0,4.4-1.9,4.4-2.8c0-0.6-0.9-0.7-0.9-0.7c-0.5,1.3-1.5,2.2-3.5,2.2c-2.2,0-3.8-1.7-3.8-4.1
			c0-2.4,1.6-4.1,3.8-4.1c1.9,0,2.9,1,3.5,2.2c0,0.1,0.9,0,0.9-0.7c0-0.9-1.4-2.8-4.4-2.8c-3,0-5.2,2.2-5.2,5.3
			C128,54,130.2,56.3,133.2,56.3"/>
		<path id="Fill-159" d="M139.8,51.3h7.9c0.4,0,0.6-0.1,0.6-0.5v-0.1c0-3.1-1.9-5.1-4.7-5.1c-3,0-5.1,2.3-5.1,5.3
			c0,3.1,2.2,5.3,5.3,5.3c2.8,0,4.3-1.5,4.3-2.2c0-0.7-0.8-0.8-0.8-0.8c-0.6,1-1.5,1.8-3.5,1.8C141.5,55,139.9,53.5,139.8,51.3
			L139.8,51.3z M139.8,50.2c0.3-1.9,1.8-3.3,3.7-3.3c1.9,0,3.1,1.3,3.3,3.3H139.8z"/>
		<path id="Fill-161" d="M23.1,50.3h0.5c1,0,1.4-0.5,1.4-1.6v-8.9l2.5,6c0.3,0.6,0.4,1.1,1.7,1.1c1.4,0,1.5-0.5,1.8-1.1l2.5-6.1v9
			c0,1,0.4,1.6,1.4,1.6h0.5c1,0,1.4-0.5,1.4-1.6v-12c0-1.1-0.6-1.7-1.8-1.7h-0.9c-1,0-1.3,0.3-1.8,1.2l-3.1,7.2l-3.1-7.2
			c-0.4-0.9-0.8-1.2-1.8-1.2h-1c-1.1,0-1.7,0.6-1.7,1.7v12C21.7,49.7,22.1,50.3,23.1,50.3"/>
		<path id="Fill-163" d="M48.2,44.3c2.6-0.4,4-2.1,4-4.5c0-3.1-2-4.7-6-4.7h-4.5c-1.1,0-1.8,0.7-1.8,1.9v11.4c0,1.2,0.5,1.9,1.5,1.9
			h0.5c1,0,1.5-0.6,1.5-1.6v-3.9h1.3l3.3,4.1c0.7,1,1.3,1.4,2.3,1.4c1.5,0,2.1-1.1,2-1.3L48.2,44.3z M43.3,42.3v-4.5h2.6
			c1.9,0,2.8,0.8,2.8,2.3c0,1.4-0.9,2.3-2.8,2.3H43.3z"/>
		<path id="Fill-165" d="M60.8,41.3c0.6,0.1,1.1,0.3,1.7,0.5c0.6,0.2,1.1,0.5,1.5,0.8c0.5,0.3,0.8,0.8,1.1,1.3
			c0.3,0.5,0.4,1.2,0.4,1.9c0,0.8-0.2,1.6-0.5,2.2c-0.3,0.6-0.7,1.1-1.3,1.5c-0.5,0.4-1.2,0.6-1.9,0.8c-0.7,0.2-1.5,0.3-2.3,0.3
			c-1.1,0-2.1-0.1-2.9-0.4c-0.8-0.2-1.4-0.5-1.9-0.8c-0.4-0.2-0.6-0.5-0.7-0.7c-0.1-0.2-0.2-0.4-0.2-0.6c0-0.3,0.1-0.6,0.3-0.9
			c0.1-0.2,0.3-0.4,0.5-0.5c0.2-0.1,0.5-0.2,0.7-0.2c0.2,0,0.5,0.1,0.7,0.2c0.2,0.1,0.4,0.2,0.7,0.4c0.2,0.1,0.4,0.3,0.6,0.4
			c0.2,0.1,0.4,0.2,0.7,0.3c0.3,0.1,0.6,0.2,0.9,0.2c0.3,0.1,0.7,0.1,1.1,0.1c0.8,0,1.5-0.1,1.9-0.4c0.4-0.3,0.7-0.7,0.7-1.3
			c0-0.6-0.2-1.1-0.6-1.4c-0.4-0.3-1.1-0.5-1.9-0.7l-1.2-0.2c-0.6-0.1-1.2-0.3-1.8-0.5c-0.6-0.2-1.1-0.5-1.5-0.8
			c-0.4-0.3-0.8-0.8-1-1.3c-0.3-0.5-0.4-1.1-0.4-1.9c0-0.7,0.1-1.3,0.4-1.8c0.3-0.6,0.6-1.1,1.1-1.5c0.5-0.4,1.1-0.7,1.9-1
			c0.7-0.2,1.6-0.3,2.5-0.3c0.6,0,1.3,0.1,1.9,0.2c0.6,0.1,1.2,0.3,1.7,0.5c0.5,0.2,0.9,0.5,1.2,0.8c0.3,0.3,0.5,0.7,0.5,1.1
			c0,0.2-0.1,0.5-0.2,0.7c-0.1,0.2-0.3,0.4-0.5,0.5c-0.2,0.1-0.4,0.2-0.7,0.2c-0.2,0-0.4,0-0.6-0.1c-0.2-0.1-0.3-0.2-0.5-0.3
			c-0.3-0.3-0.8-0.5-1.2-0.7c-0.5-0.2-1.1-0.3-1.9-0.3c-0.5,0-0.9,0.1-1.2,0.2c-0.3,0.1-0.6,0.2-0.8,0.4c-0.2,0.2-0.3,0.4-0.4,0.6
			c-0.1,0.2-0.1,0.4-0.1,0.7c0,0.3,0.1,0.5,0.2,0.7c0.1,0.2,0.3,0.4,0.5,0.5c0.2,0.1,0.5,0.3,0.7,0.4c0.3,0.1,0.6,0.2,0.9,0.2
			L60.8,41.3z"/>
		<polygon id="Fill-167" points="135.7,62.4 134.7,62.4 134.7,61.8 137.3,61.8 137.3,62.4 136.3,62.4 136.3,64.9 135.7,64.9 		"/>
		<polygon id="Fill-169" points="137.7,61.8 138.7,61.8 139.4,63.9 139.4,63.9 140.1,61.8 141.1,61.8 141.1,64.9 140.4,64.9 
			140.4,62.7 140.4,62.7 139.7,64.9 139.1,64.9 138.4,62.7 138.4,62.7 138.4,64.9 137.7,64.9 		"/>
		<path id="Fill-171" class="st8" d="M80.3,35.6C80,34,79.7,32.5,79.2,31l-4.9,1.6c0.4,1.3,0.8,2.6,1,3.9L80.3,35.6z"/>
		<path id="Fill-173" class="st0" d="M69.4,34.2l4.9-1.6c-0.4-1.3-0.9-2.6-1.5-3.8L68.1,31C68.6,32,69,33.1,69.4,34.2"/>
	</g>
</g>
</svg>
