<svg xmlns="http://www.w3.org/2000/svg" width="200" height="43"><g fill="#FF6352" fill-rule="evenodd"><path d="M14.948 24.675 0 .705h9.659l9.604 16.374L28.67.704h9.493L23.159 24.73v17.363h-8.21zm68.194 17.417v-4.488q-1.614 2.4-4.245 3.782a11.8 11.8 0 0 1-5.553 1.384q-2.98 0-5.345-1.328c-1.578-.882-2.719-2.127-3.424-3.727q-1.058-2.4-1.057-6.632V12.11h7.821v13.778q0 6.323.432 7.75.431 1.422 1.573 2.258 1.14.831 2.895.832 2.005 0 3.59-1.114 1.588-1.116 2.172-2.768t.585-8.088V12.11h7.822v29.982zm30.986-15.216v-6.972h17.761v16.485q-2.59 2.542-7.502 4.474-4.914 1.935-9.952 1.935-6.402 0-11.163-2.725-4.76-2.724-7.153-7.79c-1.597-3.378-2.395-7.056-2.395-11.026q0-6.464 2.672-11.49 2.673-5.024 7.823-7.706Q108.144 0 113.99 0q7.6 0 11.873 3.231c4.273 3.231 4.681 5.135 5.498 8.936l-8.184 1.554q-.863-3.05-3.243-4.813-2.38-1.768-5.944-1.767-5.4 0-8.587 3.475-3.187 3.47-3.186 10.303 0 7.369 3.227 11.051 3.23 3.684 8.463 3.684 2.588 0 5.192-1.03 2.602-1.03 4.468-2.498v-5.25zm61.416 15.216L163.629 12.11h8.212l5.568 15.302 1.615 5.108q.64-1.945.806-2.568.392-1.27.836-2.54l5.623-15.302h8.046l-11.748 29.982zm20.5-39.614a4 4 0 0 1 1.947.52q.949.517 1.479 1.483a4.1 4.1 0 0 1 .53 2.014q0 1.037-.522 1.995a3.7 3.7 0 0 1-1.463 1.487 4 4 0 0 1-1.971.529 3.97 3.97 0 0 1-1.968-.529 3.73 3.73 0 0 1-1.467-1.487 4.1 4.1 0 0 1-.525-1.995q0-1.048.532-2.014a3.7 3.7 0 0 1 1.482-1.484 4 4 0 0 1 1.946-.519m0 .665q-.833 0-1.623.433-.79.435-1.235 1.24a3.4 3.4 0 0 0-.446 1.679q0 .868.439 1.662.436.796 1.224 1.24a3.3 3.3 0 0 0 1.64.445 3.3 3.3 0 0 0 1.644-.445 3.1 3.1 0 0 0 1.222-1.24q.435-.795.435-1.662 0-.873-.443-1.679a3.07 3.07 0 0 0-1.235-1.24 3.33 3.33 0 0 0-1.622-.433M30.47 26.678q0-3.95 1.921-7.651 1.92-3.697 5.443-5.647 3.52-1.947 7.863-1.947 6.709 0 10.996 4.417t4.287 11.167q0 6.802-4.33 11.278-4.328 4.475-10.898 4.475-4.064.001-7.752-1.864-3.689-1.863-5.609-5.463t-1.921-8.765m8.017.423q0 4.46 2.088 6.833 2.089 2.37 5.15 2.371 3.063 0 5.136-2.371 2.073-2.373 2.074-6.89 0-4.404-2.074-6.775t-5.136-2.37q-3.061-.002-5.15 2.37-2.087 2.371-2.088 6.832m95.715-.423q0-3.95 1.92-7.651 1.92-3.697 5.443-5.647 3.521-1.947 7.863-1.947 6.709 0 10.997 4.417 4.286 4.417 4.286 11.167 0 6.802-4.327 11.278-4.33 4.475-10.9 4.475-4.065.001-7.752-1.864-3.69-1.863-5.61-5.463t-1.92-8.765m8.017.423q0 4.46 2.088 6.833 2.087 2.37 5.15 2.371 3.06 0 5.136-2.371 2.072-2.373 2.074-6.89-.001-4.404-2.074-6.775-2.076-2.372-5.136-2.37-3.063-.002-5.15 2.37t-2.088 6.832m52.089-18.388v-4.32h1.463q.751 0 1.085.12.338.12.536.418.2.297.2.632 0 .475-.334.825-.332.351-.884.394.226.096.362.228.258.256.63.858l.52.845h-.84l-.378-.68q-.445-.803-.719-1.006-.189-.149-.55-.149h-.405v1.835zm.686-2.431h.835q.597 0 .816-.181a.59.59 0 0 0 .217-.479.6.6 0 0 0-.105-.343.62.62 0 0 0-.291-.227q-.185-.073-.69-.074h-.782z"/></g></svg>