<?xml version="1.0" encoding="UTF-8"?>
<svg id="Layer_2" data-name="Layer 2" xmlns="http://www.w3.org/2000/svg" viewBox="0 0 1059.92 141.73">
  <g id="Layer_1-2" data-name="Layer 1">
    <path d="M989.05,0c-34.28,0-62.88,24.35-69.45,56.69H140.31C133.75,24.35,105.15,0,70.87,0,31.73,0,0,31.73,0,70.87s31.73,70.87,70.87,70.87c34.28,0,62.88-24.35,69.45-56.69h779.29c6.57,32.35,35.16,56.69,69.45,56.69,39.14,0,70.87-31.73,70.87-70.87S1028.19,0,989.05,0ZM70.87,113.39c-23.48,0-42.52-19.04-42.52-42.52s19.04-42.52,42.52-42.52,42.52,19.04,42.52,42.52-19.04,42.52-42.52,42.52ZM989.05,113.39c-23.48,0-42.52-19.04-42.52-42.52s19.04-42.52,42.52-42.52,42.52,19.04,42.52,42.52-19.04,42.52-42.52,42.52Z"/>
  </g>
</svg>