<?xml version="1.0" encoding="UTF-8"?>
<svg id="Layer_2" xmlns="http://www.w3.org/2000/svg" viewBox="0 0 300 46.17">
  <defs>
    <style>
      .cls-1 {
        fill: #322d32;
      }
    </style>
  </defs>
  <g id="Layer_1-2" data-name="Layer_1">
    <g>
      <g>
        <path class="cls-1" d="M82.79,7.73c5.66,0,9.35,3.29,9.35,7.72,0,3.03-1.76,5.57-4.52,6.89,3.64,1.1,5.92,3.99,5.92,7.68,0,4.7-4.04,8.43-10,8.43h-13.91V7.73h13.16ZM81.78,20.72c3.29,0,5.31-2.02,5.31-4.52s-2.02-4.52-5.31-4.52h-7.11v9.04h7.11ZM74.67,34.49h8.03c3.6,0,5.79-2.28,5.79-5.05s-2.19-5.05-5.79-5.05h-8.03v10.09Z"/>
        <path class="cls-1" d="M120.25,38.44h-3.99l-.48-3.99c-1.8,2.72-4.74,4.43-8.29,4.43-6.06,0-11.01-5.05-11.01-11.63s5.09-11.76,11.19-11.76c3.47,0,6.41,1.62,8.16,4.26l.44-3.82h3.99v22.51ZM101.3,27.17c0,4.12,3.07,7.28,7.15,7.28s7.2-3.16,7.2-7.28-3.07-7.24-7.2-7.24-7.15,3.16-7.15,7.24Z"/>
        <path class="cls-1" d="M127.06,45.9h-2.68v-4.34h3.68c2.15,0,3.55-1.32,4.43-3.33l-9.17-22.29h5.35l6.36,16.81,6.41-16.81h5.13l-9.35,22.73c-1.89,4.65-4.78,7.24-8.95,7.24h-1.22Z"/>
        <path class="cls-1" d="M151.58,27.91c.26,3.95,3.29,6.76,7.42,6.76,4.65,0,6.8-3.38,6.8-3.38l2.94,2.68s-2.98,4.91-10.05,4.91-11.94-5-11.94-11.58,5.22-11.8,11.98-11.8c6.19,0,11.06,4.96,11.06,10.97,0,.83-.22,1.45-.22,1.45h-17.99ZM151.71,24.62h13.43c-.53-3.2-3.25-5.44-6.49-5.44-3.51,0-6.23,2.19-6.93,5.44Z"/>
        <path class="cls-1" d="M189.31,31.99c0,3.86-3.07,6.89-8.64,6.89s-8.78-3.07-8.78-3.07l2.11-3.16s2.9,2.54,6.71,2.54c2.5,0,3.86-1.27,3.86-2.72s-.79-2.72-5.35-4.04c-4.04-1.18-6.36-3.51-6.36-6.54,0-3.33,2.85-6.41,8.25-6.41,4.78,0,7.9,2.63,7.9,2.63l-2.15,3.2s-2.33-2.15-5.62-2.15c-2.46,0-3.6,1.23-3.6,2.37,0,1.32.79,2.5,4.65,3.55,4.61,1.32,7.02,3.73,7.02,6.89Z"/>
        <path class="cls-1" d="M200.77,7.73h12.86c6.67,0,11.06,4.17,11.06,10.05s-4.56,10.14-11.23,10.14h-7.64v10.53h-5.05V7.73ZM205.81,12.03v11.72h7.28c3.95,0,6.54-2.5,6.54-5.84s-2.59-5.88-6.54-5.88h-7.28Z"/>
        <path class="cls-1" d="M228.14,15.93h4.3l.31,4.74c1.58-3.38,4.65-4.74,8.82-4.74l-.09,4.91h-.97c-4.65,0-7.55,2.59-7.55,8.43v9.17h-4.83V15.93Z"/>
        <path class="cls-1" d="M251.04,9.61c0,1.76-1.36,3.12-3.16,3.12s-3.2-1.36-3.2-3.12,1.36-3.16,3.2-3.16,3.16,1.36,3.16,3.16ZM245.42,15.93h4.91v22.51h-4.91V15.93Z"/>
        <path class="cls-1" d="M275.43,34.8s-2.98,4.08-9,4.08c-6.85,0-11.94-5.05-11.94-11.63s5.27-11.76,12.11-11.76c5.75,0,8.64,3.69,8.64,3.69l-3.29,3.2s-1.8-2.46-5.44-2.46c-4.12,0-7.2,3.16-7.2,7.24s3.07,7.28,7.2,7.28c3.91,0,5.62-2.72,5.62-2.72l3.29,3.07Z"/>
        <path class="cls-1" d="M281.79,27.91c.26,3.95,3.29,6.76,7.42,6.76,4.65,0,6.8-3.38,6.8-3.38l2.94,2.68s-2.98,4.91-10.05,4.91-11.94-5-11.94-11.58,5.22-11.8,11.98-11.8c6.19,0,11.06,4.96,11.06,10.97,0,.83-.22,1.45-.22,1.45h-17.99ZM281.92,24.62h13.43c-.53-3.2-3.25-5.44-6.49-5.44-3.51,0-6.23,2.19-6.93,5.44Z"/>
      </g>
      <g>
        <path class="cls-1" d="M31.5,3.38c-.03.08-.06.16-.09.25,0,0,0,0,0,.01-.03.08-.05.16-.07.24,0,0,0,.02,0,.02-.02.08-.04.15-.06.23,0,.01,0,.02,0,.04-.02.07-.03.15-.04.22,0,.02,0,.03,0,.05-.01.07-.02.14-.03.21,0,.02,0,.04,0,.06,0,.07-.01.14-.02.21,0,.02,0,.04,0,.06,0,.09,0,.18,0,.27,0,2.89,2.35,5.25,5.25,5.25h0c.7,0,1.39-.14,2.02-.4.16-.06.31-.14.46-.22.38-.2.73-.45,1.05-.74.06-.06.13-.12.19-.18.08-.08.16-.17.23-.25.02-.02.03-.04.05-.05.07-.08.14-.17.21-.26,0,0,0,0,0,0h0c.67-.9,1.04-2,1.04-3.15C41.65,2.35,39.3,0,36.4,0c-1.39,0-2.71.55-3.7,1.54-.47.47-.84,1.01-1.1,1.59h0s0,0,0,0c-.04.08-.07.16-.1.25,0,0,0,0,0,0Z"/>
        <path class="cls-1" d="M31.41,34.43l.02-.02.05-.03s.1-.05.16-.11c.11-.11.22-.17.36-.23l.03-.02.03-.03.05-.02s.07-.04.1-.06l.02-.02.38-.19s.08-.03.11-.05c.06-.02.12-.05.18-.09l.02-.02.42-.21.1-.1h.1l.05-.03s.09-.03.16-.05c.07-.02.16-.04.26-.09h.03s.03-.02.03-.02c0,0,.07-.02.12-.02.1-.02.21-.04.31-.09l.09-.04h.25V13.39l-.2-.03c-.4-.07-.8-.2-1.21-.34h-.04s-.07-.01-.07-.01l-.06-.03c-.05-.02-.11-.05-.17-.08-.1-.05-.21-.1-.32-.14h-.02s-.02-.02-.02-.02c-.92-.47-1.8-1.14-2.54-1.95l-.13-.14-17.1,9.86.06.19c.03.09.04.16.06.24.02.09.03.17.06.27v.02s0,.02,0,.02c0,.04.02.07.04.11l.03.05v.06c.01.1.03.19.05.26v.02s.02.07.02.1v.02s0,.02,0,.02c0,.09.02.18.04.26v.02s.02.07.03.11v.02s0,.07,0,.07l.02.04s.03.06.03.07l.02.05v.15s0,.03,0,.03c.06.25.06.44.06.71,0,.12-.02.24-.03.35-.02.13-.04.26-.04.42v.28c0,.09-.02.16-.03.24-.01.07-.03.13-.03.21v.04s-.02.07-.02.07c-.02.07-.05.14-.05.21,0,.17-.06.35-.13.55l-.06.19,16.88,9.79.21-.21h0c.09-.11.18-.21.28-.31.25-.25.54-.49.93-.77h.02Z"/>
        <path class="cls-1" d="M40.61,37.78s0,0,0,0c-.07-.09-.14-.18-.21-.26-.02-.02-.03-.04-.05-.05-.08-.09-.15-.17-.23-.25-.06-.06-.12-.12-.19-.18-.32-.29-.67-.54-1.05-.74-.15-.08-.3-.15-.46-.22-.63-.26-1.31-.4-2.02-.4h0c-1.41,0-2.73.54-3.72,1.53-.99.99-1.53,2.31-1.53,3.72,0,.09,0,.18,0,.27,0,.02,0,.04,0,.06,0,.07,0,.14.02.21,0,.02,0,.04,0,.06,0,.07.02.14.03.21,0,.02,0,.03,0,.05.01.07.03.15.04.22,0,.01,0,.02,0,.03.02.08.04.16.06.23,0,0,0,.01,0,.02.02.08.05.16.07.24,0,0,0,0,0,0,.03.08.06.17.09.25,0,0,0,0,0,0,.26.69.66,1.31,1.19,1.84.99.99,2.31,1.53,3.72,1.53,1.41,0,2.73-.54,3.72-1.53.99-.99,1.53-2.31,1.53-3.72,0-1.15-.37-2.25-1.04-3.15h0Z"/>
        <path class="cls-1" d="M28.49,38.5l.07-.19-16.9-9.73-.13.15c-.14.17-.29.33-.45.49-1.12,1.12-2.54,1.88-4.07,2.22,3.21,7.28,10.5,12.37,18.97,12.37.89,0,1.77-.06,2.64-.17-.3-.85-.46-1.77-.46-2.72,0-1.06.1-1.78.33-2.42Z"/>
        <path class="cls-1" d="M42.6,10.69c-.12.14-.25.28-.38.41-1.14,1.14-2.57,1.92-4.13,2.26l-.19.04v19.44l.19.04c1.79.36,3.35,1.3,4.5,2.61,2.59-3.46,4.12-7.75,4.12-12.4s-1.53-8.94-4.12-12.4Z"/>
        <path class="cls-1" d="M6.43,28.51c.13-.03.26-.06.38-.1,0,0,0,0,.01,0,.12-.04.25-.08.37-.13,0,0,.02,0,.03-.01.12-.05.23-.1.35-.16.02,0,.04-.02.05-.03.11-.06.23-.12.34-.18,0,0,0,0,.01,0,.1-.06.21-.13.31-.2.02-.01.03-.02.05-.04.1-.07.2-.15.29-.23.02-.02.04-.03.06-.05.1-.08.19-.17.28-.26,0,0,0,0,0,0,.06-.06.12-.12.18-.19.41-.45.73-.96.96-1.51.26-.63.4-1.31.4-2.02s-.14-1.39-.4-2.02c-.23-.55-.55-1.06-.96-1.51-.06-.06-.12-.13-.18-.19-.06-.06-.12-.11-.18-.17-.02-.02-.04-.04-.06-.05-.04-.04-.08-.07-.12-.1-.03-.02-.05-.04-.08-.06-.04-.03-.07-.06-.11-.09-.03-.02-.06-.04-.09-.06-.04-.03-.07-.05-.11-.08-.03-.02-.06-.04-.09-.06-.03-.02-.07-.04-.1-.07-.03-.02-.07-.04-.1-.06-.03-.02-.06-.04-.09-.05-.09-.05-.17-.09-.26-.14-.01,0-.03-.02-.04-.02-.05-.02-.1-.04-.15-.07-.02,0-.04-.02-.06-.03-.05-.02-.1-.04-.15-.06-.02,0-.04-.02-.06-.02-.05-.02-.1-.04-.16-.06-.02,0-.04-.01-.05-.02-.06-.02-.11-.04-.17-.05-.01,0-.02,0-.03,0-.46-.13-.94-.2-1.44-.2-1.41,0-2.73.54-3.72,1.53-.99.99-1.53,2.31-1.53,3.72s.54,2.73,1.53,3.72c.99.99,2.31,1.53,3.72,1.53.39,0,.77-.04,1.14-.12.01,0,.03,0,.04,0Z"/>
        <path class="cls-1" d="M11.33,17.79l.13.14L28.63,8l-.06-.18c-.26-.8-.4-1.68-.4-2.57,0-.94.16-1.86.47-2.72-.86-.11-1.75-.17-2.64-.17-8.69,0-16.13,5.35-19.21,12.94,1.75.32,3.36,1.19,4.56,2.49Z"/>
      </g>
    </g>
  </g>
</svg>